<svg width="34" height="32" viewBox="0 0 34 32" fill="none" xmlns="http://www.w3.org/2000/svg">
<g id="_&#233;&#141;&#165;&#230;&#131;&#167;&#231;&#156;&#176;_1" clip-path="url(#clip0_84_3818)">
<path id="Vector" d="M33 11.4671V2.62065C33 1.17188 31.8255 0 30.3798 0H22.3598C21.9068 0 21.5377 0.3552 21.5041 0.808289C21.1098 6.24816 16.7671 10.5357 11.4651 10.5357V0.855835C11.4651 0.383168 11.082 0 10.6094 0H2.623C1.17727 0 0.00279637 1.17468 0.00279637 2.62065V10.6084C0.00279637 11.0811 0.385899 11.4643 0.858487 11.4643H9.6335C10.1424 11.4643 10.5367 11.9062 10.4864 12.4124C9.98585 17.5278 5.48089 21.5329 0 21.5329V30.3794C0 31.8281 1.17448 33 2.6202 33H10.6402C11.0932 33 11.4623 32.6448 11.4959 32.1917C11.8902 26.7518 16.2329 22.4643 21.5349 22.4643V32.1414C21.5349 32.614 21.918 32.9972 22.3906 32.9972H30.377C31.8255 32.9972 32.9972 31.8225 32.9972 30.3766V22.3888C32.9972 21.9161 32.6141 21.5329 32.1415 21.5329H23.3665C22.8576 21.5329 22.4633 21.091 22.5136 20.5848C23.0142 15.4694 27.5191 11.4643 33 11.4643V11.4671Z" fill="url(#paint0_linear_84_3818)"/>
</g>
<defs>
<linearGradient id="paint0_linear_84_3818" x1="16.5" y1="0" x2="16.5" y2="33" gradientUnits="userSpaceOnUse">
<stop stop-color="#0D6CFF"/>
<stop offset="1" stop-color="#27C5FF"/>
</linearGradient>
<clipPath id="clip0_84_3818">
<rect width="34" height="32" fill="white"/>
</clipPath>
</defs>
</svg>
